<mxfile host="app.diagrams.net" modified="2021-06-17T12:07:40.263Z" agent="5.0 (Macintosh; Intel Mac OS X 10_15_7) AppleWebKit/537.36 (KHTML, like Gecko) Chrome/91.0.4472.106 Safari/537.36" etag="ASBh-zSK1367-GYihnSD" version="14.7.10" type="github">
  <diagram id="rXwI5DOIgrz3bsDwatfr" name="Page-1">
    <mxGraphModel dx="1426" dy="707" grid="1" gridSize="10" guides="1" tooltips="1" connect="1" arrows="1" fold="1" page="1" pageScale="1" pageWidth="827" pageHeight="1169" math="0" shadow="0">
      <root>
        <mxCell id="0" />
        <mxCell id="1" parent="0" />
        <mxCell id="aK-3erv0Hce7Rdo0jS6M-4" value="魔方前端" style="shape=umlLifeline;perimeter=lifelinePerimeter;whiteSpace=wrap;html=1;container=1;collapsible=0;recursiveResize=0;outlineConnect=0;" vertex="1" parent="1">
          <mxGeometry x="350" y="110" width="100" height="720" as="geometry" />
        </mxCell>
        <mxCell id="aK-3erv0Hce7Rdo0jS6M-9" value="" style="html=1;points=[];perimeter=orthogonalPerimeter;" vertex="1" parent="aK-3erv0Hce7Rdo0jS6M-4">
          <mxGeometry x="45" y="120" width="10" height="310" as="geometry" />
        </mxCell>
        <mxCell id="aK-3erv0Hce7Rdo0jS6M-5" value="联合投放前端" style="shape=umlLifeline;perimeter=lifelinePerimeter;whiteSpace=wrap;html=1;container=1;collapsible=0;recursiveResize=0;outlineConnect=0;" vertex="1" parent="1">
          <mxGeometry x="150" y="110" width="100" height="830" as="geometry" />
        </mxCell>
        <mxCell id="aK-3erv0Hce7Rdo0jS6M-7" value="魔方后端" style="shape=umlLifeline;perimeter=lifelinePerimeter;whiteSpace=wrap;html=1;container=1;collapsible=0;recursiveResize=0;outlineConnect=0;" vertex="1" parent="1">
          <mxGeometry x="514" y="110" width="100" height="680" as="geometry" />
        </mxCell>
        <mxCell id="aK-3erv0Hce7Rdo0jS6M-8" value="" style="html=1;points=[];perimeter=orthogonalPerimeter;" vertex="1" parent="1">
          <mxGeometry x="195" y="190" width="10" height="580" as="geometry" />
        </mxCell>
        <mxCell id="aK-3erv0Hce7Rdo0jS6M-10" value="获取落地页地址" style="html=1;verticalAlign=bottom;endArrow=block;entryX=0;entryY=0;" edge="1" target="aK-3erv0Hce7Rdo0jS6M-9" parent="1" source="aK-3erv0Hce7Rdo0jS6M-5">
          <mxGeometry relative="1" as="geometry">
            <mxPoint x="325" y="230" as="sourcePoint" />
          </mxGeometry>
        </mxCell>
        <mxCell id="aK-3erv0Hce7Rdo0jS6M-13" value="" style="html=1;points=[];perimeter=orthogonalPerimeter;" vertex="1" parent="1">
          <mxGeometry x="559" y="270" width="10" height="80" as="geometry" />
        </mxCell>
        <mxCell id="aK-3erv0Hce7Rdo0jS6M-14" value="获取落地页模版" style="html=1;verticalAlign=bottom;endArrow=block;entryX=0;entryY=0;" edge="1" target="aK-3erv0Hce7Rdo0jS6M-13" parent="1" source="aK-3erv0Hce7Rdo0jS6M-9">
          <mxGeometry relative="1" as="geometry">
            <mxPoint x="490" y="240" as="sourcePoint" />
          </mxGeometry>
        </mxCell>
        <mxCell id="aK-3erv0Hce7Rdo0jS6M-15" value="落地页模板" style="html=1;verticalAlign=bottom;endArrow=open;dashed=1;endSize=8;exitX=0;exitY=0.95;" edge="1" source="aK-3erv0Hce7Rdo0jS6M-13" parent="1">
          <mxGeometry relative="1" as="geometry">
            <mxPoint x="400" y="346" as="targetPoint" />
          </mxGeometry>
        </mxCell>
        <mxCell id="aK-3erv0Hce7Rdo0jS6M-11" value="落地页URL" style="html=1;verticalAlign=bottom;endArrow=open;dashed=1;endSize=8;exitX=0;exitY=0.95;" edge="1" source="aK-3erv0Hce7Rdo0jS6M-9" parent="1" target="aK-3erv0Hce7Rdo0jS6M-8">
          <mxGeometry relative="1" as="geometry">
            <mxPoint x="200" y="510" as="targetPoint" />
          </mxGeometry>
        </mxCell>
        <mxCell id="aK-3erv0Hce7Rdo0jS6M-19" value="" style="html=1;points=[];perimeter=orthogonalPerimeter;" vertex="1" parent="1">
          <mxGeometry x="559" y="400" width="10" height="80" as="geometry" />
        </mxCell>
        <mxCell id="aK-3erv0Hce7Rdo0jS6M-20" value="创建落地页" style="html=1;verticalAlign=bottom;endArrow=block;entryX=0;entryY=0;" edge="1" target="aK-3erv0Hce7Rdo0jS6M-19" parent="1" source="aK-3erv0Hce7Rdo0jS6M-4">
          <mxGeometry relative="1" as="geometry">
            <mxPoint x="489" y="400" as="sourcePoint" />
          </mxGeometry>
        </mxCell>
        <mxCell id="aK-3erv0Hce7Rdo0jS6M-21" value="落地页信息" style="html=1;verticalAlign=bottom;endArrow=open;dashed=1;endSize=8;exitX=0;exitY=0.95;entryX=1.3;entryY=0.8;entryDx=0;entryDy=0;entryPerimeter=0;" edge="1" source="aK-3erv0Hce7Rdo0jS6M-19" parent="1" target="aK-3erv0Hce7Rdo0jS6M-9">
          <mxGeometry relative="1" as="geometry">
            <mxPoint x="489" y="476" as="targetPoint" />
          </mxGeometry>
        </mxCell>
        <mxCell id="aK-3erv0Hce7Rdo0jS6M-23" value="" style="shape=umlLifeline;participant=umlActor;perimeter=lifelinePerimeter;whiteSpace=wrap;html=1;container=1;collapsible=0;recursiveResize=0;verticalAlign=top;spacingTop=36;outlineConnect=0;" vertex="1" parent="1">
          <mxGeometry x="45" y="110" width="20" height="760" as="geometry" />
        </mxCell>
        <mxCell id="aK-3erv0Hce7Rdo0jS6M-24" value="联合投放后端" style="shape=umlLifeline;perimeter=lifelinePerimeter;whiteSpace=wrap;html=1;container=1;collapsible=0;recursiveResize=0;outlineConnect=0;" vertex="1" parent="1">
          <mxGeometry x="675" y="110" width="100" height="680" as="geometry" />
        </mxCell>
        <mxCell id="aK-3erv0Hce7Rdo0jS6M-26" value="" style="html=1;points=[];perimeter=orthogonalPerimeter;" vertex="1" parent="1">
          <mxGeometry x="720" y="560" width="10" height="80" as="geometry" />
        </mxCell>
        <mxCell id="aK-3erv0Hce7Rdo0jS6M-27" value="发起履约" style="html=1;verticalAlign=bottom;endArrow=block;entryX=0;entryY=0;" edge="1" target="aK-3erv0Hce7Rdo0jS6M-26" parent="1" source="aK-3erv0Hce7Rdo0jS6M-8">
          <mxGeometry relative="1" as="geometry">
            <mxPoint x="650" y="560" as="sourcePoint" />
          </mxGeometry>
        </mxCell>
        <mxCell id="aK-3erv0Hce7Rdo0jS6M-28" value="履约结果" style="html=1;verticalAlign=bottom;endArrow=open;dashed=1;endSize=8;exitX=0;exitY=0.95;" edge="1" source="aK-3erv0Hce7Rdo0jS6M-26" parent="1" target="aK-3erv0Hce7Rdo0jS6M-5">
          <mxGeometry relative="1" as="geometry">
            <mxPoint x="650" y="636" as="targetPoint" />
          </mxGeometry>
        </mxCell>
        <mxCell id="aK-3erv0Hce7Rdo0jS6M-29" value="" style="html=1;points=[];perimeter=orthogonalPerimeter;" vertex="1" parent="1">
          <mxGeometry x="50" y="170" width="10" height="610" as="geometry" />
        </mxCell>
        <mxCell id="aK-3erv0Hce7Rdo0jS6M-31" value="一键履约" style="html=1;verticalAlign=bottom;endArrow=block;entryX=1.3;entryY=0.016;entryDx=0;entryDy=0;entryPerimeter=0;" edge="1" parent="1" target="aK-3erv0Hce7Rdo0jS6M-8">
          <mxGeometry width="80" relative="1" as="geometry">
            <mxPoint x="60" y="200" as="sourcePoint" />
            <mxPoint x="140" y="200" as="targetPoint" />
          </mxGeometry>
        </mxCell>
        <mxCell id="aK-3erv0Hce7Rdo0jS6M-32" value="履约结果" style="html=1;verticalAlign=bottom;endArrow=open;dashed=1;endSize=8;" edge="1" parent="1" source="aK-3erv0Hce7Rdo0jS6M-8">
          <mxGeometry relative="1" as="geometry">
            <mxPoint x="130" y="690" as="sourcePoint" />
            <mxPoint x="50" y="690" as="targetPoint" />
          </mxGeometry>
        </mxCell>
        <mxCell id="aK-3erv0Hce7Rdo0jS6M-33" value="运营" style="text;html=1;align=center;verticalAlign=middle;resizable=0;points=[];autosize=1;strokeColor=none;" vertex="1" parent="1">
          <mxGeometry x="30" y="140" width="40" height="20" as="geometry" />
        </mxCell>
        <mxCell id="aK-3erv0Hce7Rdo0jS6M-41" style="edgeStyle=orthogonalEdgeStyle;rounded=0;orthogonalLoop=1;jettySize=auto;html=1;" edge="1" parent="1" source="aK-3erv0Hce7Rdo0jS6M-34" target="aK-3erv0Hce7Rdo0jS6M-35">
          <mxGeometry relative="1" as="geometry" />
        </mxCell>
        <mxCell id="aK-3erv0Hce7Rdo0jS6M-34" value="" style="rounded=0;whiteSpace=wrap;html=1;" vertex="1" parent="1">
          <mxGeometry x="414" y="1110" width="120" height="50" as="geometry" />
        </mxCell>
        <mxCell id="aK-3erv0Hce7Rdo0jS6M-35" value="模板列表数据" style="rounded=0;whiteSpace=wrap;html=1;" vertex="1" parent="1">
          <mxGeometry x="280" y="1250" width="120" height="50" as="geometry" />
        </mxCell>
        <mxCell id="aK-3erv0Hce7Rdo0jS6M-39" style="edgeStyle=orthogonalEdgeStyle;rounded=0;orthogonalLoop=1;jettySize=auto;html=1;exitX=0.5;exitY=0;exitDx=0;exitDy=0;entryX=0.5;entryY=1;entryDx=0;entryDy=0;" edge="1" parent="1" source="aK-3erv0Hce7Rdo0jS6M-37" target="aK-3erv0Hce7Rdo0jS6M-35">
          <mxGeometry relative="1" as="geometry">
            <Array as="points">
              <mxPoint x="190" y="1340" />
              <mxPoint x="340" y="1340" />
            </Array>
          </mxGeometry>
        </mxCell>
        <mxCell id="aK-3erv0Hce7Rdo0jS6M-37" value="leo&lt;br&gt;资源位和奖励关系" style="rounded=0;whiteSpace=wrap;html=1;" vertex="1" parent="1">
          <mxGeometry x="130" y="1370" width="120" height="50" as="geometry" />
        </mxCell>
        <mxCell id="aK-3erv0Hce7Rdo0jS6M-40" style="edgeStyle=orthogonalEdgeStyle;rounded=0;orthogonalLoop=1;jettySize=auto;html=1;exitX=0.5;exitY=0;exitDx=0;exitDy=0;" edge="1" parent="1" source="aK-3erv0Hce7Rdo0jS6M-38">
          <mxGeometry relative="1" as="geometry">
            <mxPoint x="340" y="1300" as="targetPoint" />
            <Array as="points">
              <mxPoint x="509" y="1340" />
              <mxPoint x="340" y="1340" />
            </Array>
          </mxGeometry>
        </mxCell>
        <mxCell id="aK-3erv0Hce7Rdo0jS6M-38" value="mysql&lt;br&gt;页面配置数据" style="rounded=0;whiteSpace=wrap;html=1;" vertex="1" parent="1">
          <mxGeometry x="449" y="1370" width="120" height="50" as="geometry" />
        </mxCell>
      </root>
    </mxGraphModel>
  </diagram>
</mxfile>
